<svg width="51" height="49" viewBox="0 0 51 49" fill="none" xmlns="http://www.w3.org/2000/svg">
<path d="M12.3907 21.212C11.4584 21.212 10.6714 22.2389 10.6714 23.4532C10.6714 24.6684 11.4583 25.6954 12.3907 25.6954C13.3231 25.6954 14.111 24.6684 14.111 23.4532C14.111 22.2389 13.3231 21.212 12.3907 21.212Z" fill="#F47606"/>
<path d="M27.468 33.0643C26.5357 33.0643 25.7487 34.0913 25.7487 35.3065C25.7487 36.5208 26.5356 37.5477 27.468 37.5477C28.4004 37.5477 29.1884 36.5208 29.1884 35.3065C29.1884 34.0913 28.4004 33.0643 27.468 33.0643Z" fill="#F47606"/>
<path d="M37.2391 14.9067C22.0902 0.967529 22.865 1.49994 21.6607 1.03208C19.9491 0.353139 17.9125 0.708147 16.5057 2.00227L2.48137 14.9067C0.904453 16.357 0 18.4209 0 20.5705V43.4218C0 46.1143 2.17955 48.3057 4.85805 48.3057H34.8613C37.5399 48.3057 39.7193 46.1143 39.7193 43.4218V20.5705C39.7194 18.4209 38.8149 16.357 37.2391 14.9067ZM18.4143 10.0079C18.5048 9.13948 19.3013 8.5228 20.1924 8.69004C21.0447 8.86775 21.5247 9.68554 21.3658 10.4472C21.197 11.2586 20.4337 11.7754 19.6087 11.6206C18.8208 11.4562 18.3399 10.7404 18.4143 10.0079ZM7.68307 23.4532C7.68307 20.5695 9.79489 18.2237 12.3908 18.2237C14.9877 18.2237 17.0994 20.5695 17.0994 23.4532C17.0994 26.3368 14.9876 28.6836 12.3908 28.6836C9.79489 28.6836 7.68307 26.3368 7.68307 23.4532ZM16.2488 39.3568C15.1929 39.3568 14.456 38.2742 14.8722 37.2839L22.1459 19.9479C22.4656 19.1869 23.3412 18.8283 24.1022 19.148C24.8632 19.4668 25.2208 20.3433 24.902 21.1044L17.6274 38.4404C17.3873 39.0121 16.8335 39.3568 16.2488 39.3568ZM27.4681 40.5362C24.8722 40.5362 22.7604 38.1904 22.7604 35.3067C22.7604 32.423 24.8723 30.0762 27.4681 30.0762C30.064 30.0762 32.1767 32.423 32.1767 35.3067C32.1767 38.1904 30.064 40.5362 27.4681 40.5362Z" fill="#F47606"/>
<path d="M50.625 31.3161C45.7601 17.1543 43.058 9.28033 43.0196 9.19088C42.1739 7.23256 40.5303 5.70953 38.5122 5.01326C38.3963 4.97392 39.0797 5.13987 28.2432 2.56885L39.2613 12.7071C41.4517 14.7212 42.7078 17.587 42.7078 20.5703V39.9343L48.083 37.6333C50.5144 36.5815 51.645 33.7575 50.625 31.3161Z" fill="#F47606"/>
</svg>
